<svg id="Layer_1" data-name="Layer 1" xmlns="http://www.w3.org/2000/svg" viewBox="0 0 1080 1080"><defs><style>.cls-1{fill:#fff;}.cls-2{fill:#ffc31f;}</style></defs><path class="cls-1" d="M427.56,551.86c-8.15-12.89-34-51.3-37.44-64.54a9.3,9.3,0,0,0-6.48-6.62c-14.31-4.08-53.75-15.18-56.43-14.9-.36,0-.71.07-1.11.13l-125,20c-6.48,1.05-38.94,9-57.37,13.62A16.83,16.83,0,0,0,130.93,516c.11,17.27.35,45.66.67,49.17l9,91.51,0,.56c0,.71.11,1.44.13,2.19l1.44,55.46a8.7,8.7,0,0,1-2.7,6.31l-3.35,8.6a.59.59,0,0,0-.2.54l15.41,140.13a11.32,11.32,0,0,0,6.42,8.63l89.55,42.37a9,9,0,0,0,4.79.8,11.24,11.24,0,0,0,7-3.57l4.85-5.34,6.4,1.16a10.72,10.72,0,0,0,2.66.08,11,11,0,0,0,6.32-2.93l23.05-21.31,45.12-10a11,11,0,0,0,8.07-7.32L429,560.42A11.2,11.2,0,0,0,427.56,551.86ZM317.3,601.39,285,800.58a14.86,14.86,0,0,1-13,11.91,12.33,12.33,0,0,1-4.93-.43l-7.81-2.28-10.43.05c-6.35,0-11.22-4.59-11.29-10.64l-8.26-185.64a11.24,11.24,0,0,1,9.18-12.08c18.87-3.39,47.79-8.22,68.32-10.86A9.35,9.35,0,0,1,317.3,601.39Z"/><path class="cls-1" d="M752.51,310.74,738,399.36a10.33,10.33,0,0,1-9.27,8.47L546.08,420.57c-2.16.15-2.76,3.18-.74,3.69l37.28,9.23L568.85,818.6l-6.69,6.74L560.59,846a9.44,9.44,0,0,1-.84,3.42L477.9,1026.9c-1.44,3.43-6.24,3.58-7.12.25L418.53,869.71a8.32,8.32,0,0,1-.24-3.91l22-138.28,36.06-30.72-32.71,9.69L489,422,354.27,436.26l-.51,0a4.08,4.08,0,0,1-4.13-3.48l-11-70.91-7.12-15.51a8.83,8.83,0,0,1,.6-8.24,10.23,10.23,0,0,1,7.14-5l195.83-16.63,179.24-32.66a7,7,0,0,1,3.32.07c4.14,1.2,6.54,5.25,6.14,9.68l.76,10.32Z"/><path class="cls-1" d="M948.23,805.81l-13.68-16.66a3.74,3.74,0,0,0-1.81-1.19l-6-1.78a9.52,9.52,0,0,1-4.08-2.46L814.11,670.91l129-220.48a7.06,7.06,0,0,0,1.46-4.5,5.07,5.07,0,0,0-1.75-3.83L912,416.58a11.81,11.81,0,0,1-1.91-2L871.3,362.24a4.55,4.55,0,0,0-3.72-1.92,6.09,6.09,0,0,0-5.2,3.22L846.63,390c-2.93,4.93-7.85,8-12.85,8a6.14,6.14,0,0,0-5.1,3.13l-80.1,205,15.34-161.82a2.17,2.17,0,0,0-.45-1.63,1.82,1.82,0,0,0-1.42-.69,2.28,2.28,0,0,0-.44.05l-77,17.58a2.4,2.4,0,0,0-1.76,1.9c-1,5.28-5.36,6.78-10.29,7.13l-35.85,5.09a2.37,2.37,0,0,0-2.09,2.26L616.5,808.66a8.16,8.16,0,0,0,.8,4l-.59,9.23a15,15,0,0,1,.91,10.67l-1.56,24.34a8.09,8.09,0,0,0-.21,3.45L619,880.1a7.75,7.75,0,0,0,8.36,6.35,10.56,10.56,0,0,0,1.47-.19L697.69,872a9.93,9.93,0,0,0,7.83-8l1.37-6.63c.73-5,3.9-4.48,8.48-7.32l5.31-3.3a9.88,9.88,0,0,0,4.7-7.27L734.68,722,857,874.56a4,4,0,0,0,3.2,1.22h0a5.67,5.67,0,0,0,3.5-1.53l31.22-23.81a15.21,15.21,0,0,1,2.11-1.63L946.3,813a6.08,6.08,0,0,0,2.6-3.48A4.12,4.12,0,0,0,948.23,805.81Z"/><path class="cls-2" d="M684.5,83.12,653.74,248.86l-108,12.93a79.27,79.27,0,0,0-8.1,1.41L461,280.79l61.69-57.66L395.56,291.64l-99.14-144a.64.64,0,0,1,.79-1l75,32.82,14-66.16a.64.64,0,0,1,1.05-.36l62.39,53.69L479,50.92a.64.64,0,0,1,1.16-.19l65.2,100.09,41.75-70.94a.64.64,0,0,1,1.11,0L622.82,138l60.61-55.46A.64.64,0,0,1,684.5,83.12Z"/></svg>